<svg width="24" height="24" viewBox="0 0 24 24" fill="none" xmlns="http://www.w3.org/2000/svg">
<path fill-rule="evenodd" clip-rule="evenodd" d="M11.7541 1.9997C14.2284 1.9997 16.2459 4.00256 16.2728 6.47358L16.492 6.4746C19.254 6.4746 21.5 8.7196 21.5 11.4796V16.9956C21.5 19.7546 19.254 21.9996 16.492 21.9996H7.008C4.247 21.9996 2 19.7546 2 16.9956V11.4796C2 8.7196 4.247 6.4746 7.008 6.4746L7.212 6.4737L7.21834 6.27922C7.28114 5.14476 7.74837 4.10404 8.5501 3.3107C9.4081 2.4597 10.5601 2.0347 11.7541 1.9997ZM16.492 7.9746L16.273 7.9737L16.2731 9.5557C16.2731 9.9697 15.9371 10.3057 15.5231 10.3057C15.1091 10.3057 14.7731 9.9697 14.7731 9.5557L14.773 7.9737H8.711L8.7111 9.5557C8.7111 9.9697 8.3751 10.3057 7.9611 10.3057C7.5471 10.3057 7.2111 9.9697 7.2111 9.5557L7.211 7.9737L7.008 7.9746C5.074 7.9746 3.5 9.5466 3.5 11.4796V16.9956C3.5 18.9276 5.074 20.4996 7.008 20.4996H16.492C18.426 20.4996 20 18.9276 20 16.9956V11.4796C20 9.5466 18.426 7.9746 16.492 7.9746ZM11.7511 3.4997C10.9401 3.5277 10.1801 3.8077 9.6061 4.3757C9.04043 4.93645 8.72338 5.67977 8.71143 6.4736L14.771 6.4737L14.768 6.34633C14.6759 4.7615 13.3586 3.4997 11.7511 3.4997Z" fill="#8D8598"/>
</svg>
