<svg width="55" height="29" viewBox="0 0 55 29" fill="none" xmlns="http://www.w3.org/2000/svg">
<path d="M27.5651 7.61671C23.4946 2.79173 19.876 6.13595e-05 14.0495 6.13595e-05C11.8055 -0.000420357 9.59402 0.535635 7.60056 1.56328C5.6071 2.59093 3.88974 4.08021 2.59248 5.90627C1.29523 7.73233 0.455873 9.84194 0.144801 12.0582C-0.166271 14.2745 0.0600046 16.5329 0.804656 18.6439C1.54931 20.755 2.79063 22.6573 4.42455 24.1913C6.05847 25.7253 8.03735 26.8462 10.1953 27.4602C12.3532 28.0742 14.6273 28.1633 16.8269 27.72C19.0265 27.2768 21.0875 26.314 22.8371 24.9126C24.5059 23.5159 26.06 21.9882 27.4843 20.3441C27.4843 20.3441 27.837 7.93911 27.5651 7.61671ZM17.8922 18.2595C17.6095 18.51 17.3046 18.7344 16.9812 18.9299C16.0855 19.4418 15.0744 19.719 14.0422 19.7359C13.2742 19.7553 12.5101 19.6212 11.7949 19.3414C11.0798 19.0617 10.4279 18.6421 9.87792 18.1073C9.32789 17.5724 8.89076 16.9332 8.5923 16.2273C8.29384 15.5214 8.14008 14.763 8.14008 13.9969C8.14008 13.2308 8.29384 12.4724 8.5923 11.7665C8.89076 11.0606 9.32789 10.4214 9.87792 9.88652C10.4279 9.35169 11.0798 8.93205 11.7949 8.65234C12.5101 8.37262 13.2742 8.23849 14.0422 8.25784C15.5218 8.26955 16.9426 8.83734 18.0208 9.84785C19.0825 10.8297 21.9407 14.061 21.9407 14.061C20.6971 15.5584 19.3439 16.9617 17.8922 18.2595Z" fill="url(#paint0_linear_3_5)"/>
<path d="M32.0324 3.13239C30.3978 4.48709 28.8959 5.99348 27.5468 7.6313L27.4844 20.344C31.1581 24.8686 35.3351 27.9973 40.875 27.9973C43.1225 27.9984 45.3373 27.4614 47.3333 26.4314C49.3294 25.4013 51.0482 23.9084 52.3453 22.0781C53.6425 20.2478 54.48 18.1337 54.7874 15.9135C55.0948 13.6933 54.8632 11.4319 54.112 9.3196C53.3607 7.20725 52.1119 5.30565 50.4705 3.77471C48.8291 2.24377 46.8431 1.12825 44.6794 0.521946C42.5158 -0.0843569 40.2378 -0.163716 38.037 0.290545C35.8362 0.744805 33.777 1.7194 32.0324 3.13239ZM32.9802 14.0646C32.9802 14.0646 35.8384 10.8333 36.9001 9.85145C37.9774 8.8418 39.3967 8.27408 40.875 8.26144C42.3762 8.29927 43.803 8.92052 44.8513 9.99267C45.8996 11.0648 46.4863 12.503 46.4863 14.0005C46.4863 15.498 45.8996 16.9362 44.8513 18.0083C43.803 19.0805 42.3762 19.7017 40.875 19.7395C39.8429 19.722 38.832 19.4448 37.9361 18.9335C37.6133 18.7371 37.3084 18.5128 37.025 18.2631C35.5746 16.9652 34.2226 15.5619 32.9802 14.0646Z" fill="url(#paint1_linear_3_5)"/>
<path d="M2.80433 5.68233C0.83154 8.29749 -0.154386 11.5221 0.0196595 14.7901C0.0196595 14.7901 -0.134634 6.11464 9.38394 6.11464C15.2215 6.11464 19.1633 11.0275 21.9407 14.1306C23.2485 15.5961 25.0229 17.5231 27.5982 20.5676C30.7576 24.2898 33.9794 28.0633 40.875 28.0633C45.4524 28.0633 49.5743 25.8652 51.8079 22.9709C55.5955 18.0434 54.8975 13.5481 54.8975 13.5481C54.8975 13.5481 54.4677 22.0477 46.0586 22.0477C38.9499 22.0477 36.0587 17.208 30.629 10.9909C25.3278 4.9203 21.9076 7.5132e-05 13.8622 7.5132e-05C8.90636 -0.00725209 4.89834 2.84304 2.80433 5.68233Z" fill="url(#paint2_linear_3_5)"/>
<defs>
<linearGradient id="paint0_linear_3_5" x1="0.00927734" y1="13.9987" x2="27.668" y2="13.9987" gradientUnits="userSpaceOnUse">
<stop stop-color="#8E2DE2"/>
<stop offset="1" stop-color="#4A00E0"/>
</linearGradient>
<linearGradient id="paint1_linear_3_5" x1="27.4844" y1="13.9987" x2="54.9193" y2="13.9987" gradientUnits="userSpaceOnUse">
<stop stop-color="#8E2DE2"/>
<stop offset="1" stop-color="#4A00E0"/>
</linearGradient>
<linearGradient id="paint2_linear_3_5" x1="0" y1="14.0317" x2="54.9481" y2="14.0317" gradientUnits="userSpaceOnUse">
<stop stop-color="#8E2DE2"/>
<stop offset="1" stop-color="#4A00E0"/>
</linearGradient>
</defs>
</svg>
